<svg xmlns="http://www.w3.org/2000/svg" viewBox="6 1 88 112" preserveAspectRatio="xMinYMid meet">
  <g transform="translate(0,114) scale(0.1,-0.1)">
    <path fill="white" d="M68 1104 c-3 -3 46 -134 109 -291 114 -286 114 -286 103 -437 -6 -83
-17 -196 -25 -251 -7 -55 -11 -102 -9 -104 1 -2 62 -6 133 -9 85 -3 131 -1
131 5 0 13 -64 184 -134 358 -56 139 -56 140 -56 245 1 173 16 340 38 400 10
30 22 63 27 73 7 16 -4 17 -152 17 -88 0 -162 -2 -165 -6z"/>
<path fill="white" d="M640 565 c0 -545 0 -545 136 -545 109 0 135 3 131 13 -31 81 -58 194
-68 283 -18 174 2 396 62 657 16 71 29 131 29 133 0 2 -65 4 -145 4 -145 0
-145 0 -145 -545z"/>
  </g>
</svg>
